<svg width="18" height="18" viewBox="0 0 18 18" fill="none" xmlns="http://www.w3.org/2000/svg">
<g clip-path="url(#clip0)">
<path d="M6.74977 8.62521C4.68208 8.62521 2.99985 6.94312 2.99985 4.87542C2.99985 2.80772 4.68208 1.12549 6.74977 1.12549C8.81747 1.12549 10.4997 2.80772 10.4997 4.87542C10.4997 6.94312 8.81747 8.62521 6.74977 8.62521ZM6.74977 2.25045C5.30237 2.25045 4.12481 3.42788 4.12481 4.87542C4.12481 6.32282 5.30237 7.50024 6.74977 7.50024C8.19718 7.50024 9.37474 6.32282 9.37474 4.87542C9.37474 3.42788 8.19718 2.25045 6.74977 2.25045Z" fill="white"/>
<path d="M12.9371 16.875H0.562482C0.251991 16.875 0 16.623 0 16.3126V13.6876C0 11.7234 1.59819 10.1252 3.56234 10.1252H9.93723C11.9014 10.1252 13.4996 11.7234 13.4996 13.6876V16.3126C13.4996 16.623 13.2476 16.875 12.9371 16.875ZM1.12496 15.7501H12.3746V13.6876C12.3746 12.3437 11.2811 11.2502 9.93723 11.2502H3.56234C2.21848 11.2502 1.12496 12.3437 1.12496 13.6876V15.7501Z" fill="white"/>
<path d="M17.4369 8.81271H11.0622C10.7517 8.81271 10.4997 8.56072 10.4997 8.25023C10.4997 7.93974 10.7517 7.68774 11.0622 7.68774H17.4369C17.7474 7.68774 17.9994 7.93974 17.9994 8.25023C17.9994 8.56072 17.7474 8.81271 17.4369 8.81271Z" fill="white"/>
<path d="M14.4371 11.8126C14.293 11.8126 14.1491 11.7578 14.0395 11.6477C13.8198 11.4278 13.8198 11.0716 14.0395 10.8519L16.642 8.24942L14.0395 5.64697C13.8198 5.42725 13.8198 5.07103 14.0395 4.85131C14.2592 4.63159 14.6155 4.63159 14.8353 4.85131L17.8352 7.85117C18.0549 8.07089 18.0549 8.42725 17.8352 8.64697L14.8353 11.6468C14.725 11.7578 14.581 11.8126 14.4371 11.8126Z" fill="white"/>
</g>
<defs>
<clipPath id="clip0">
<rect width="18" height="18" fill="white"/>
</clipPath>
</defs>
</svg>
