<svg width="175" height="88" viewBox="0 0 175 88" fill="none" xmlns="http://www.w3.org/2000/svg">
<path d="M106.466 44.0911C107.561 44.0911 108.608 43.8054 109.513 43.1388C112.179 41.2819 112.751 38.2345 110.989 35.1396C105.942 26.2356 100.847 17.3793 95.8 8.52301C95.5143 7.99925 95.181 7.52311 94.8477 7.04696C94.3716 5.71375 93.5145 4.571 92.8955 3.33302C91.8004 1.23798 90.1339 0 87.7532 0C85.3724 0 83.6583 1.23798 82.5155 3.28541C80.9919 5.95183 79.4682 8.61824 77.9445 11.2847C73.2783 19.2363 68.6597 27.2356 63.8506 35.1396C61.4699 38.9964 64.3744 44.472 68.993 44.1387C71.707 43.9483 74.4211 44.1387 77.1351 44.1387H106.466V44.0911ZM89.372 35.4253C91.0862 35.5205 99.4187 35.6157 101.133 35.4253C99.9901 32.7589 98.9426 32.0446 96.7999 32.3779C94.2764 31.9018 85.0391 32.2351 82.4679 32.1875C78.3731 32.0922 74.2782 32.1399 70.1357 32.0922C69.9929 32.0922 69.8024 32.0446 69.4691 31.997C71.1357 29.0925 72.8022 26.2833 74.4211 23.5216C78.0398 17.3317 81.7061 11.1418 85.3248 4.95192C85.9438 3.9044 86.7056 3.28541 87.896 3.33302C89.134 3.38064 89.8006 4.38054 90.1339 5.28522C90.4672 6.1899 90.0387 7.28503 89.4673 8.18971C86.3247 13.4749 83.2298 18.8078 80.1348 24.093C79.0873 25.8547 75.659 31.4733 74.6115 33.2826C77.6112 33.7111 78.4207 33.2826 79.8491 30.8543C83.0869 25.3786 88.6578 16.0461 91.8956 10.5704C92.1337 10.1895 92.2289 9.52292 92.9431 9.99907C93.2288 9.61815 93.5621 9.28485 93.8002 8.90393C93.5621 9.28485 93.2288 9.61815 92.9431 9.99907C97.9427 18.8078 102.895 27.6165 107.894 36.4252C108.275 37.0918 108.704 37.7584 108.704 38.5678C108.656 40.4248 106.513 41.4723 104.752 40.4724C104.037 40.0439 103.561 39.4249 103.133 38.6631C99.7997 32.6636 96.419 26.7594 92.9908 20.8552C92.7527 19.8553 89.6577 14.7605 89.2292 13.8082C88.8483 13.094 88.515 13.1892 88.0865 13.8082C86.7532 15.7604 86.8961 17.0936 88.8483 19.8077C91.5147 24.5691 96.6095 33.6159 99.2759 38.3774C99.3711 38.5202 99.4663 38.6631 99.6092 38.8059C100.085 39.282 100.752 39.9487 100.514 40.4724C100.228 41.0438 99.2283 40.9009 98.6569 40.8533C94.9906 40.5676 91.2766 40.7581 87.6103 40.7581C82.9917 40.6153 78.3731 40.5676 73.7068 40.6153C71.8975 40.6153 70.1357 40.6153 68.3264 40.4724C67.0884 40.3772 66.2313 39.3297 66.279 38.1869C66.279 36.8061 67.5169 35.4729 69.0882 35.4253C71.6594 35.33 74.2306 35.4253 76.8018 35.4253C80.9919 35.4253 85.182 35.4253 89.372 35.4253Z" fill="url(#paint0_linear)"/>
<path d="M90.0865 29.521C90.8959 29.521 91.0388 29.1877 90.3722 28.283C89.5151 27.0926 88.8485 25.807 88.2295 24.4738C87.7057 23.3311 87.3724 23.5692 86.9439 24.2834C86.0868 25.807 85.1822 27.2831 84.1823 28.9972C84.087 29.1877 84.2299 29.4734 84.4203 29.4734C86.4678 29.4734 88.2771 29.521 90.0865 29.521Z" fill="url(#paint1_linear)"/>
<path d="M14.184 75.9506C14.184 76.9746 13.984 77.6546 13.584 77.9906C13.184 78.3266 12.504 78.4946 11.544 78.4946H4.152C3.192 78.4946 2.512 78.3266 2.112 77.9906C1.712 77.6546 1.512 76.9746 1.512 75.9506V63.7106C1.512 62.6866 1.712 62.0066 2.112 61.6706C2.512 61.3346 3.192 61.1666 4.152 61.1666H11.544C12.504 61.1666 13.184 61.3346 13.584 61.6706C13.984 62.0066 14.184 62.6866 14.184 63.7106V75.9506ZM10.56 75.7346C10.896 75.7346 11.104 75.7026 11.184 75.6386C11.264 75.5746 11.304 75.3746 11.304 75.0386V64.6466C11.304 64.3106 11.256 64.1106 11.16 64.0466C11.08 63.9666 10.88 63.9266 10.56 63.9266H5.136C4.816 63.9266 4.608 63.9666 4.512 64.0466C4.432 64.1106 4.392 64.3106 4.392 64.6466V75.0146C4.392 75.3506 4.432 75.5586 4.512 75.6386C4.608 75.7026 4.816 75.7346 5.136 75.7346H10.56ZM29.1431 61.8626L25.0391 77.7986C24.9111 78.2626 24.5991 78.4946 24.1031 78.4946H21.6071C21.1111 78.4946 20.7991 78.2626 20.6711 77.7986L16.4711 61.8626C16.3431 61.3986 16.5191 61.1666 16.9991 61.1666H18.6791C19.1591 61.1666 19.4551 61.3986 19.5671 61.8626L22.8071 74.6786L26.0711 61.8626C26.1831 61.3986 26.4791 61.1666 26.9591 61.1666H28.6151C29.0951 61.1666 29.2711 61.3986 29.1431 61.8626ZM41.8913 76.4546V77.7746C41.8913 78.2546 41.6513 78.4946 41.1713 78.4946H31.8113C31.3313 78.4946 31.0913 78.2546 31.0913 77.7746V61.8866C31.0913 61.4066 31.3313 61.1666 31.8113 61.1666H41.1713C41.6513 61.1666 41.8913 61.4066 41.8913 61.8866V63.2066C41.8913 63.6866 41.6513 63.9266 41.1713 63.9266H33.9713V68.4386H39.6113C40.0913 68.4386 40.3313 68.6786 40.3313 69.1586V70.4786C40.3313 70.9586 40.0913 71.1986 39.6113 71.1986H33.9713V75.7346H41.1713C41.6513 75.7346 41.8913 75.9746 41.8913 76.4546ZM52.2534 71.8466L55.6374 77.8706C55.8774 78.2866 55.7494 78.4946 55.2534 78.4946H53.6934C53.2134 78.4946 52.8534 78.2866 52.6134 77.8706L49.2534 71.8466H47.2134V77.7746C47.2134 78.2546 46.9734 78.4946 46.4934 78.4946H45.0534C44.5734 78.4946 44.3334 78.2546 44.3334 77.7746V61.8866C44.3334 61.4066 44.5734 61.1666 45.0534 61.1666H53.4054C54.3654 61.1666 55.0454 61.3346 55.4454 61.6706C55.8454 62.0066 56.0454 62.6866 56.0454 63.7106V69.3026C56.0454 70.3266 55.8454 71.0066 55.4454 71.3426C55.0454 71.6786 54.3654 71.8466 53.4054 71.8466H52.2534ZM52.4454 69.0866C52.7814 69.0866 52.9894 69.0546 53.0694 68.9906C53.1494 68.9266 53.1894 68.7266 53.1894 68.3906V64.6466C53.1894 64.3106 53.1414 64.1106 53.0454 64.0466C52.9654 63.9666 52.7654 63.9266 52.4454 63.9266H47.2374V69.0866H52.4454ZM70.5069 75.9506C70.5069 76.9746 70.3069 77.6546 69.9069 77.9906C69.5069 78.3266 68.8269 78.4946 67.8669 78.4946H59.4909C59.0109 78.4946 58.7709 78.2546 58.7709 77.7746V61.8866C58.7709 61.4066 59.0109 61.1666 59.4909 61.1666H67.8669C68.8269 61.1666 69.5069 61.3346 69.9069 61.6706C70.3069 62.0066 70.5069 62.6866 70.5069 63.7106V67.6466C70.5069 68.8306 70.1949 69.5906 69.5709 69.9266C70.1949 70.2306 70.5069 70.9826 70.5069 72.1826V75.9506ZM66.8829 75.7346C67.2189 75.7346 67.4269 75.7026 67.5069 75.6386C67.5869 75.5746 67.6269 75.3746 67.6269 75.0386V71.9426C67.6269 71.6066 67.5789 71.4066 67.4829 71.3426C67.4029 71.2626 67.2029 71.2226 66.8829 71.2226H61.6509V75.7346H66.8829ZM66.8829 68.4626C67.2189 68.4626 67.4269 68.4306 67.5069 68.3666C67.5869 68.3026 67.6269 68.1026 67.6269 67.7666V64.6466C67.6269 64.3106 67.5789 64.1106 67.4829 64.0466C67.4029 63.9666 67.2029 63.9266 66.8829 63.9266H61.6509V68.4626H66.8829ZM86.184 75.9506C86.184 76.9746 85.984 77.6546 85.584 77.9906C85.184 78.3266 84.504 78.4946 83.544 78.4946H76.152C75.192 78.4946 74.512 78.3266 74.112 77.9906C73.712 77.6546 73.512 76.9746 73.512 75.9506V63.7106C73.512 62.6866 73.712 62.0066 74.112 61.6706C74.512 61.3346 75.192 61.1666 76.152 61.1666H83.544C84.504 61.1666 85.184 61.3346 85.584 61.6706C85.984 62.0066 86.184 62.6866 86.184 63.7106V75.9506ZM82.56 75.7346C82.896 75.7346 83.104 75.7026 83.184 75.6386C83.264 75.5746 83.304 75.3746 83.304 75.0386V64.6466C83.304 64.3106 83.256 64.1106 83.16 64.0466C83.08 63.9666 82.88 63.9266 82.56 63.9266H77.136C76.816 63.9266 76.608 63.9666 76.512 64.0466C76.432 64.1106 76.392 64.3106 76.392 64.6466V75.0146C76.392 75.3506 76.432 75.5586 76.512 75.6386C76.608 75.7026 76.816 75.7346 77.136 75.7346H82.56ZM101.887 75.9506C101.887 76.9746 101.687 77.6546 101.287 77.9906C100.887 78.3266 100.207 78.4946 99.2471 78.4946H91.8551C90.8951 78.4946 90.2151 78.3266 89.8151 77.9906C89.4151 77.6546 89.2151 76.9746 89.2151 75.9506V63.7106C89.2151 62.6866 89.4151 62.0066 89.8151 61.6706C90.2151 61.3346 90.8951 61.1666 91.8551 61.1666H99.2471C100.207 61.1666 100.887 61.3346 101.287 61.6706C101.687 62.0066 101.887 62.6866 101.887 63.7106V75.9506ZM98.2631 75.7346C98.5991 75.7346 98.8071 75.7026 98.8871 75.6386C98.9671 75.5746 99.0071 75.3746 99.0071 75.0386V64.6466C99.0071 64.3106 98.9591 64.1106 98.8631 64.0466C98.7831 63.9666 98.5831 63.9266 98.2631 63.9266H92.8391C92.5191 63.9266 92.3111 63.9666 92.2151 64.0466C92.1351 64.1106 92.0951 64.3106 92.0951 64.6466V75.0146C92.0951 75.3506 92.1351 75.5586 92.2151 75.6386C92.3111 75.7026 92.5191 75.7346 92.8391 75.7346H98.2631ZM116.702 75.9506C116.702 76.9746 116.502 77.6546 116.102 77.9906C115.702 78.3266 115.022 78.4946 114.062 78.4946H107.414C106.454 78.4946 105.774 78.3266 105.374 77.9906C104.974 77.6546 104.774 76.9746 104.774 75.9506V74.0546C104.774 73.5746 105.014 73.3346 105.494 73.3346H106.934C107.414 73.3346 107.654 73.5746 107.654 74.0546V75.0146C107.654 75.3506 107.694 75.5586 107.774 75.6386C107.87 75.7026 108.078 75.7346 108.398 75.7346H113.078C113.398 75.7346 113.598 75.7026 113.678 75.6386C113.774 75.5586 113.822 75.3506 113.822 75.0146V71.9426C113.822 71.6066 113.774 71.4066 113.678 71.3426C113.598 71.2626 113.398 71.2226 113.078 71.2226H107.39C106.43 71.2226 105.75 71.0546 105.35 70.7186C104.95 70.3826 104.75 69.7026 104.75 68.6786V63.7106C104.75 62.6866 104.95 62.0066 105.35 61.6706C105.75 61.3346 106.43 61.1666 107.39 61.1666H114.038C114.998 61.1666 115.678 61.3346 116.078 61.6706C116.478 62.0066 116.678 62.6866 116.678 63.7106V65.6066C116.678 66.0866 116.438 66.3266 115.958 66.3266H114.518C114.038 66.3266 113.798 66.0866 113.798 65.6066V64.6466C113.798 64.3106 113.75 64.1106 113.654 64.0466C113.574 63.9666 113.374 63.9266 113.054 63.9266H108.374C108.054 63.9266 107.846 63.9666 107.75 64.0466C107.67 64.1106 107.63 64.3106 107.63 64.6466V67.7426C107.63 68.0786 107.67 68.2866 107.75 68.3666C107.846 68.4306 108.054 68.4626 108.374 68.4626H114.062C115.022 68.4626 115.702 68.6306 116.102 68.9666C116.502 69.3026 116.702 69.9826 116.702 71.0066V75.9506ZM125.711 63.9266V77.7746C125.711 78.2546 125.471 78.4946 124.991 78.4946H123.551C123.071 78.4946 122.831 78.2546 122.831 77.7746V63.9266H119.063C118.583 63.9266 118.343 63.6866 118.343 63.2066V61.8866C118.343 61.4066 118.583 61.1666 119.063 61.1666H129.479C129.959 61.1666 130.199 61.4066 130.199 61.8866V63.2066C130.199 63.6866 129.959 63.9266 129.479 63.9266H125.711Z" fill="#323232"/>
<path d="M134.917 71.8466V77.7746C134.917 78.2546 134.677 78.4946 134.197 78.4946H132.757C132.277 78.4946 132.037 78.2546 132.037 77.7746V61.8866C132.037 61.4066 132.277 61.1666 132.757 61.1666H141.109C142.069 61.1666 142.749 61.3346 143.149 61.6706C143.549 62.0066 143.749 62.6866 143.749 63.7106V69.3026C143.749 70.3266 143.549 71.0066 143.149 71.3426C142.749 71.6786 142.069 71.8466 141.109 71.8466H134.917ZM140.125 69.0866C140.461 69.0866 140.669 69.0546 140.749 68.9906C140.829 68.9266 140.869 68.7266 140.869 68.3906V64.6466C140.869 64.3106 140.821 64.1106 140.725 64.0466C140.645 63.9666 140.445 63.9266 140.125 63.9266H134.917V69.0866H140.125ZM154.183 71.8466L157.567 77.8706C157.807 78.2866 157.679 78.4946 157.183 78.4946H155.623C155.143 78.4946 154.783 78.2866 154.543 77.8706L151.183 71.8466H149.143V77.7746C149.143 78.2546 148.903 78.4946 148.423 78.4946H146.983C146.503 78.4946 146.263 78.2546 146.263 77.7746V61.8866C146.263 61.4066 146.503 61.1666 146.983 61.1666H155.335C156.295 61.1666 156.975 61.3346 157.375 61.6706C157.775 62.0066 157.975 62.6866 157.975 63.7106V69.3026C157.975 70.3266 157.775 71.0066 157.375 71.3426C156.975 71.6786 156.295 71.8466 155.335 71.8466H154.183ZM154.375 69.0866C154.711 69.0866 154.919 69.0546 154.999 68.9906C155.079 68.9266 155.119 68.7266 155.119 68.3906V64.6466C155.119 64.3106 155.071 64.1106 154.975 64.0466C154.895 63.9666 154.695 63.9266 154.375 63.9266H149.167V69.0866H154.375ZM173.325 75.9506C173.325 76.9746 173.125 77.6546 172.725 77.9906C172.325 78.3266 171.645 78.4946 170.685 78.4946H163.293C162.333 78.4946 161.653 78.3266 161.253 77.9906C160.853 77.6546 160.653 76.9746 160.653 75.9506V63.7106C160.653 62.6866 160.853 62.0066 161.253 61.6706C161.653 61.3346 162.333 61.1666 163.293 61.1666H170.685C171.645 61.1666 172.325 61.3346 172.725 61.6706C173.125 62.0066 173.325 62.6866 173.325 63.7106V75.9506ZM169.701 75.7346C170.037 75.7346 170.245 75.7026 170.325 75.6386C170.405 75.5746 170.445 75.3746 170.445 75.0386V64.6466C170.445 64.3106 170.397 64.1106 170.301 64.0466C170.221 63.9666 170.021 63.9266 169.701 63.9266H164.277C163.957 63.9266 163.749 63.9666 163.653 64.0466C163.573 64.1106 163.533 64.3106 163.533 64.6466V75.0146C163.533 75.3506 163.573 75.5586 163.653 75.6386C163.749 75.7026 163.957 75.7346 164.277 75.7346H169.701Z" fill="#E5A132"/>
<defs>
<linearGradient id="paint0_linear" x1="36.9397" y1="-19.2833" x2="320.774" y2="264.551" gradientUnits="userSpaceOnUse">
<stop offset="0.1124" stop-color="#E4C355"/>
<stop offset="0.2416" stop-color="#D76250"/>
</linearGradient>
<linearGradient id="paint1_linear" x1="72.1144" y1="85.1657" x2="178.411" y2="-301.9" gradientUnits="userSpaceOnUse">
<stop offset="0.1124" stop-color="#E4C355"/>
<stop offset="0.2416" stop-color="#D76250"/>
</linearGradient>
</defs>
</svg>
